<mxfile host="app.diagrams.net" agent="Mozilla/5.0 (Windows NT 10.0; Win64; x64; rv:140.0) Gecko/20100101 Firefox/140.0" version="27.2.0">
  <diagram name="Page-1" id="pLI4ou_FMVR6bhoMaejz">
    <mxGraphModel dx="1528" dy="858" grid="0" gridSize="10" guides="1" tooltips="1" connect="1" arrows="1" fold="1" page="1" pageScale="1" pageWidth="850" pageHeight="1100" math="0" shadow="0">
      <root>
        <mxCell id="0" />
        <mxCell id="1" parent="0" />
        <mxCell id="6LGvvjDzruFtuesOnKjs-1" value="" style="rounded=1;whiteSpace=wrap;html=1;" vertex="1" parent="1">
          <mxGeometry x="40" y="250" width="190" height="700" as="geometry" />
        </mxCell>
        <mxCell id="6LGvvjDzruFtuesOnKjs-2" value="" style="rounded=1;whiteSpace=wrap;html=1;" vertex="1" parent="1">
          <mxGeometry x="240" y="250" width="590" height="440" as="geometry" />
        </mxCell>
        <mxCell id="6LGvvjDzruFtuesOnKjs-4" value="" style="rounded=1;whiteSpace=wrap;html=1;" vertex="1" parent="1">
          <mxGeometry x="240" y="700" width="590" height="240" as="geometry" />
        </mxCell>
        <mxCell id="6LGvvjDzruFtuesOnKjs-5" value="" style="rounded=0;whiteSpace=wrap;html=1;fillColor=#eeeeee;strokeColor=#36393d;" vertex="1" parent="1">
          <mxGeometry x="310" y="630" width="480" height="30" as="geometry" />
        </mxCell>
        <mxCell id="6LGvvjDzruFtuesOnKjs-6" value="Overseer:&amp;nbsp;" style="text;html=1;align=left;verticalAlign=middle;whiteSpace=wrap;rounded=0;" vertex="1" parent="1">
          <mxGeometry x="270" y="720" width="310" height="30" as="geometry" />
        </mxCell>
        <mxCell id="6LGvvjDzruFtuesOnKjs-9" value="User:" style="text;html=1;align=center;verticalAlign=middle;whiteSpace=wrap;rounded=0;" vertex="1" parent="1">
          <mxGeometry x="260" y="630" width="60" height="30" as="geometry" />
        </mxCell>
        <mxCell id="6LGvvjDzruFtuesOnKjs-10" value="Lorem ipsum dolor sit amet, consectetur adipiscing elit, sed do eiusmod &lt;br&gt;tempor incididunt ut labore et dolore magna aliqua. Ut enim ad minim &lt;br&gt;veniam, quis nostrud exercitation ullamco laboris nisi ut aliquip ex ea &lt;br&gt;commodo consequat. Duis aute irure dolor in reprehenderit in voluptate &lt;br&gt;velit esse cillum dolore eu fugiat nulla pariatur. Excepteur sint &lt;br&gt;occaecat cupidatat non proident, sunt in culpa qui officia deserunt &lt;br&gt;mollit anim id est laborum." style="text;html=1;align=left;verticalAlign=middle;whiteSpace=wrap;rounded=0;" vertex="1" parent="1">
          <mxGeometry x="330" y="310" width="480" height="130" as="geometry" />
        </mxCell>
        <mxCell id="6LGvvjDzruFtuesOnKjs-11" value="Carpe Diem&amp;nbsp;" style="text;html=1;align=right;verticalAlign=middle;whiteSpace=wrap;rounded=0;" vertex="1" parent="1">
          <mxGeometry x="650" y="500" width="110" height="30" as="geometry" />
        </mxCell>
        <mxCell id="6LGvvjDzruFtuesOnKjs-12" value="&#xa;Overseer:&#xa;&#xa;" style="text;html=1;align=center;verticalAlign=middle;whiteSpace=wrap;rounded=0;" vertex="1" parent="1">
          <mxGeometry x="280" y="310" width="60" height="30" as="geometry" />
        </mxCell>
        <mxCell id="6LGvvjDzruFtuesOnKjs-13" value=":User" style="text;whiteSpace=wrap;html=1;" vertex="1" parent="1">
          <mxGeometry x="760" y="480" width="60" height="40" as="geometry" />
        </mxCell>
        <mxCell id="6LGvvjDzruFtuesOnKjs-14" value="Carpe Diem&amp;nbsp;" style="text;html=1;align=right;verticalAlign=middle;whiteSpace=wrap;rounded=0;" vertex="1" parent="1">
          <mxGeometry x="510" y="760" width="240" height="30" as="geometry" />
        </mxCell>
        <mxCell id="6LGvvjDzruFtuesOnKjs-15" value="CLAUDE" style="text;whiteSpace=wrap;html=1;" vertex="1" parent="1">
          <mxGeometry x="750" y="745" width="60" height="30" as="geometry" />
        </mxCell>
        <mxCell id="6LGvvjDzruFtuesOnKjs-16" value="IpsumLore" style="text;whiteSpace=wrap;html=1;" vertex="1" parent="1">
          <mxGeometry x="320" y="740" width="90" height="40" as="geometry" />
        </mxCell>
        <mxCell id="6LGvvjDzruFtuesOnKjs-18" value="Network Dashboard" style="text;html=1;align=center;verticalAlign=middle;resizable=0;points=[];autosize=1;strokeColor=none;fillColor=#eeeeee;fontSize=18;rounded=1;" vertex="1" parent="1">
          <mxGeometry x="45" y="270" width="180" height="40" as="geometry" />
        </mxCell>
        <mxCell id="6LGvvjDzruFtuesOnKjs-19" value="" style="rounded=1;whiteSpace=wrap;html=1;fillColor=#f9f7ed;strokeColor=#36393d;" vertex="1" parent="1">
          <mxGeometry x="50" y="320" width="170" height="60" as="geometry" />
        </mxCell>
        <mxCell id="6LGvvjDzruFtuesOnKjs-20" value="" style="rounded=1;whiteSpace=wrap;html=1;fillColor=#f9f7ed;strokeColor=#36393d;" vertex="1" parent="1">
          <mxGeometry x="50" y="390" width="170" height="170" as="geometry" />
        </mxCell>
        <mxCell id="6LGvvjDzruFtuesOnKjs-21" value="" style="rounded=1;whiteSpace=wrap;html=1;fillColor=#f9f7ed;strokeColor=#36393d;" vertex="1" parent="1">
          <mxGeometry x="50" y="580" width="170" height="60" as="geometry" />
        </mxCell>
        <mxCell id="6LGvvjDzruFtuesOnKjs-22" value="CHAT-GPT" style="text;html=1;align=left;verticalAlign=middle;resizable=0;points=[];autosize=1;strokeColor=none;fillColor=none;fontSize=16;" vertex="1" parent="1">
          <mxGeometry x="65" y="320" width="100" height="30" as="geometry" />
        </mxCell>
        <mxCell id="6LGvvjDzruFtuesOnKjs-24" value="Disconnected" style="text;html=1;align=left;verticalAlign=middle;whiteSpace=wrap;rounded=0;" vertex="1" parent="1">
          <mxGeometry x="85" y="340" width="60" height="30" as="geometry" />
        </mxCell>
        <mxCell id="6LGvvjDzruFtuesOnKjs-25" value="" style="whiteSpace=wrap;html=1;aspect=fixed;fillStyle=solid;fillColor=light-dark(#FFFFFF,#FF0000);" vertex="1" parent="1">
          <mxGeometry x="70" y="350" width="10" height="10" as="geometry" />
        </mxCell>
        <mxCell id="6LGvvjDzruFtuesOnKjs-29" value="Connected: Idle" style="text;html=1;align=center;verticalAlign=middle;whiteSpace=wrap;rounded=0;" vertex="1" parent="1">
          <mxGeometry x="70" y="605" width="120" height="30" as="geometry" />
        </mxCell>
        <mxCell id="6LGvvjDzruFtuesOnKjs-30" value="" style="whiteSpace=wrap;html=1;aspect=fixed;fillStyle=solid;fillColor=light-dark(#FFFFFF,#3C51FF);" vertex="1" parent="1">
          <mxGeometry x="70" y="615" width="10" height="10" as="geometry" />
        </mxCell>
        <mxCell id="6LGvvjDzruFtuesOnKjs-31" value="Google Gemini" style="text;html=1;align=left;verticalAlign=middle;resizable=0;points=[];autosize=1;strokeColor=none;fillColor=none;fontSize=16;" vertex="1" parent="1">
          <mxGeometry x="65" y="580" width="130" height="30" as="geometry" />
        </mxCell>
        <mxCell id="6LGvvjDzruFtuesOnKjs-32" value="&lt;div align=&quot;left&quot;&gt;CLAUDE&lt;/div&gt;" style="text;html=1;align=left;verticalAlign=middle;resizable=0;points=[];autosize=1;strokeColor=none;fillColor=none;fontSize=16;" vertex="1" parent="1">
          <mxGeometry x="65" y="400" width="90" height="30" as="geometry" />
        </mxCell>
        <mxCell id="6LGvvjDzruFtuesOnKjs-33" value="Connected: Thinking" style="text;html=1;align=center;verticalAlign=middle;whiteSpace=wrap;rounded=0;" vertex="1" parent="1">
          <mxGeometry x="80" y="420" width="120" height="30" as="geometry" />
        </mxCell>
        <mxCell id="6LGvvjDzruFtuesOnKjs-34" value="" style="whiteSpace=wrap;html=1;aspect=fixed;fillStyle=solid;fillColor=light-dark(#FFFFFF,#00FF0B);" vertex="1" parent="1">
          <mxGeometry x="70" y="430" width="10" height="10" as="geometry" />
        </mxCell>
        <mxCell id="6LGvvjDzruFtuesOnKjs-35" value="" style="rounded=1;whiteSpace=wrap;html=1;fillColor=#f9f7ed;strokeColor=#36393d;" vertex="1" parent="1">
          <mxGeometry x="50" y="790" width="170" height="150" as="geometry" />
        </mxCell>
        <mxCell id="6LGvvjDzruFtuesOnKjs-36" value="&lt;div&gt;Connections Available&lt;/div&gt;&lt;div&gt;Active Models&lt;/div&gt;&lt;div&gt;Orchestrator:&lt;br&gt;&lt;br&gt;&lt;/div&gt;" style="text;html=1;align=left;verticalAlign=top;whiteSpace=wrap;rounded=0;" vertex="1" parent="1">
          <mxGeometry x="55" y="802.5" width="125" height="125" as="geometry" />
        </mxCell>
        <mxCell id="6LGvvjDzruFtuesOnKjs-37" value="&lt;div&gt;3&lt;/div&gt;&lt;div&gt;2&lt;/div&gt;&lt;div&gt;Online&lt;/div&gt;" style="text;html=1;align=right;verticalAlign=middle;resizable=0;points=[];autosize=1;strokeColor=none;fillColor=none;" vertex="1" parent="1">
          <mxGeometry x="145" y="802.5" width="60" height="60" as="geometry" />
        </mxCell>
        <mxCell id="6LGvvjDzruFtuesOnKjs-38" value="Role: Resarcher" style="text;html=1;align=left;verticalAlign=top;whiteSpace=wrap;rounded=0;" vertex="1" parent="1">
          <mxGeometry x="70" y="445" width="140" height="75" as="geometry" />
        </mxCell>
        <mxCell id="6LGvvjDzruFtuesOnKjs-39" value="&lt;font style=&quot;font-size: 11px;&quot;&gt;Prompt Settings&lt;/font&gt;" style="html=1;shadow=0;dashed=0;shape=mxgraph.bootstrap.rrect;rSize=5;strokeColor=none;strokeWidth=1;fillColor=#6C767D;fontColor=#FFFFFF;whiteSpace=wrap;align=center;verticalAlign=middle;spacingLeft=0;fontStyle=0;fontSize=16;spacing=5;" vertex="1" parent="1">
          <mxGeometry x="65" y="472.5" width="90" height="20" as="geometry" />
        </mxCell>
        <mxCell id="6LGvvjDzruFtuesOnKjs-40" value="Api dash" style="html=1;shadow=0;dashed=0;shape=mxgraph.bootstrap.rrect;rSize=5;strokeColor=none;strokeWidth=1;fillColor=#6C767D;fontColor=#FFFFFF;whiteSpace=wrap;align=center;verticalAlign=middle;spacingLeft=0;fontStyle=0;fontSize=11;spacing=5;" vertex="1" parent="1">
          <mxGeometry x="65" y="530" width="90" height="20" as="geometry" />
        </mxCell>
        <mxCell id="6LGvvjDzruFtuesOnKjs-41" value="&lt;div align=&quot;center&quot;&gt;&lt;font style=&quot;font-size: 11px;&quot;&gt;Model Notes&lt;/font&gt;&lt;/div&gt;" style="html=1;shadow=0;dashed=0;shape=mxgraph.bootstrap.rrect;rSize=5;strokeColor=none;strokeWidth=1;fillColor=#6C767D;fontColor=#FFFFFF;whiteSpace=wrap;align=center;verticalAlign=middle;spacingLeft=0;fontStyle=0;fontSize=16;spacing=5;" vertex="1" parent="1">
          <mxGeometry x="65" y="500" width="90" height="20" as="geometry" />
        </mxCell>
        <mxCell id="6LGvvjDzruFtuesOnKjs-42" value="Network Scan" style="html=1;shadow=0;dashed=0;shape=mxgraph.bootstrap.rrect;rSize=5;strokeColor=none;strokeWidth=1;fillColor=#6C767D;fontColor=#FFFFFF;whiteSpace=wrap;align=center;verticalAlign=middle;spacingLeft=0;fontStyle=0;fontSize=16;spacing=5;" vertex="1" parent="1">
          <mxGeometry x="57.5" y="893.75" width="120" height="27.5" as="geometry" />
        </mxCell>
        <mxCell id="6LGvvjDzruFtuesOnKjs-43" value="" style="sketch=0;pointerEvents=1;shadow=0;dashed=0;html=1;strokeColor=none;fillColor=#505050;labelPosition=center;verticalLabelPosition=bottom;verticalAlign=top;outlineConnect=0;align=center;shape=mxgraph.office.concepts.settings_office_365;" vertex="1" parent="1">
          <mxGeometry x="180" y="891.25" width="30" height="32.5" as="geometry" />
        </mxCell>
        <mxCell id="6LGvvjDzruFtuesOnKjs-45" value="File Models Networks Prompts Windows" style="text;strokeColor=none;fillColor=none;align=left;verticalAlign=middle;spacingLeft=4;spacingRight=4;overflow=hidden;points=[[0,0.5],[1,0.5]];portConstraint=eastwest;rotatable=0;whiteSpace=wrap;html=1;" vertex="1" parent="1">
          <mxGeometry x="33" y="211" width="347" height="30" as="geometry" />
        </mxCell>
        <mxCell id="6LGvvjDzruFtuesOnKjs-46" value="" style="shape=image;html=1;verticalAlign=top;verticalLabelPosition=bottom;labelBackgroundColor=#ffffff;imageAspect=0;aspect=fixed;image=https://cdn3.iconfinder.com/data/icons/ilb/Cute%20Ball%20-%20Stop.png" vertex="1" parent="1">
          <mxGeometry x="810" y="216" width="25" height="25" as="geometry" />
        </mxCell>
        <mxCell id="6LGvvjDzruFtuesOnKjs-47" value="-" style="text;html=1;align=center;verticalAlign=middle;resizable=0;points=[];autosize=1;strokeColor=none;fillColor=none;fontSize=36;" vertex="1" parent="1">
          <mxGeometry x="750" y="191" width="30" height="55" as="geometry" />
        </mxCell>
        <mxCell id="6LGvvjDzruFtuesOnKjs-51" value="" style="group" vertex="1" connectable="0" parent="1">
          <mxGeometry x="783" y="218" width="15" height="15" as="geometry" />
        </mxCell>
        <mxCell id="6LGvvjDzruFtuesOnKjs-49" value="" style="whiteSpace=wrap;html=1;aspect=fixed;" vertex="1" parent="6LGvvjDzruFtuesOnKjs-51">
          <mxGeometry x="4" width="11" height="11" as="geometry" />
        </mxCell>
        <mxCell id="6LGvvjDzruFtuesOnKjs-50" value="" style="whiteSpace=wrap;html=1;aspect=fixed;" vertex="1" parent="6LGvvjDzruFtuesOnKjs-51">
          <mxGeometry y="4" width="11" height="11" as="geometry" />
        </mxCell>
      </root>
    </mxGraphModel>
  </diagram>
</mxfile>
